<svg width="20" height="20" viewBox="0 0 20 20" fill="none" xmlns="http://www.w3.org/2000/svg">
<path d="M20 12.26V19.654H15.714V12.754C15.714 11.022 15.094 9.83999 13.542 9.83999C12.358 9.83999 11.652 10.636 11.342 11.408C11.23 11.684 11.2 12.068 11.2 12.452V19.654H6.912C6.912 19.654 6.97 7.96999 6.912 6.75999H11.2V8.58599L11.172 8.62799H11.2V8.58799C11.77 7.70799 12.786 6.45599 15.064 6.45599C17.884 6.45599 20 8.29999 20 12.26ZM2.426 0.541992C0.96 0.541992 0 1.50599 0 2.76999C0 4.00999 0.932 4.99999 2.37 4.99999H2.398C3.894 4.99999 4.824 4.00799 4.824 2.76999C4.796 1.50599 3.894 0.541992 2.426 0.541992ZM0.254 19.654H4.542V6.75999H0.254V19.654Z" fill="#A59A9A"/>
</svg>
