<svg width="20" height="16" viewBox="0 0 20 16" fill="none" xmlns="http://www.w3.org/2000/svg">
<path d="M20 1.89402C19.264 2.21402 18.474 2.43402 17.644 2.53002C18.492 2.03002 19.14 1.23802 19.448 0.29602C18.6399 0.766953 17.7582 1.09826 16.84 1.27602C16.4538 0.871168 15.9891 0.549235 15.4743 0.329856C14.9596 0.110478 14.4055 -0.00174905 13.846 2.06071e-05C11.58 2.06071e-05 9.744 1.81002 9.744 4.04002C9.744 4.35602 9.78 4.66402 9.85 4.96002C8.22465 4.88284 6.63324 4.46771 5.1773 3.74111C3.72135 3.01452 2.43285 1.99242 1.394 0.74002C1.02913 1.35422 0.837021 2.05561 0.838 2.77002C0.838 4.17002 1.564 5.41002 2.664 6.13202C2.01289 6.1116 1.37572 5.93826 0.804 5.62602V5.67602C0.810179 6.61494 1.1416 7.5227 1.74183 8.24473C2.34207 8.96676 3.17401 9.45843 4.096 9.63602C3.49072 9.79607 2.85738 9.8193 2.242 9.70402C2.51025 10.5118 3.02335 11.2159 3.71005 11.7188C4.39674 12.2216 5.22297 12.4982 6.074 12.51C4.61392 13.6351 2.82128 14.243 0.978 14.238C0.648 14.238 0.322 14.218 0 14.182C1.88094 15.3726 4.06192 16.0032 6.288 16C13.836 16 17.962 9.84402 17.962 4.50402L17.948 3.98002C18.7526 3.41458 19.4479 2.70779 20 1.89402Z" fill="#A59A9A"/>
</svg>
